<svg xmlns="http://www.w3.org/2000/svg" xmlns:xlink="http://www.w3.org/1999/xlink" width="324.786" height="236.741" viewBox="0 0 324.786 236.741">
  <defs>
    <linearGradient id="linear-gradient" x1="0.5" y1="1" x2="0.5" gradientUnits="objectBoundingBox">
      <stop offset="0" stop-color="gray" stop-opacity="0.251"/>
      <stop offset="0.54" stop-color="gray" stop-opacity="0.122"/>
      <stop offset="1" stop-color="gray" stop-opacity="0.102"/>
    </linearGradient>
  </defs>
  <g id="Group_1328" data-name="Group 1328" transform="translate(-206.607 -110.825)">
    <g id="undraw_revenue_3osh" transform="translate(206.637 110.835)">
      <path id="Path_2951" data-name="Path 2951" d="M942.768,124.334s-4.535-1.843-18.961,4.764-16.228,5.776-19.964,4.764-5.815-1.254-9.826-6.78c0,0-2.823-15.3-5.556-17.678s-14.346,1.352-14.346,1.352-13.92,3.195-16.573-15.4c0,0,1.882-14.027-.682-18.33,0,0,5.175,2.23,13.714-1.373s15.379,3.871,15.379,3.871,2.153,5.577,1.926,8.9S889.02,93,893.094,91.4c0,0,2-2.847-.834-7.551S887.4,75.639,888.2,71.983s3.064-8.718,10.371-11.252,17.231-3.022,21.995-5.005,5.916-3.275,5.916-3.275-2.93,2.936,3.975,15.388,2.5,17.865,2.5,17.865-3.674,8.754-19.893,8.039c0,0-15.629.572-7.107,7.2,0,0,5.455-1.111,13.613-3.7s14.048,8.108,15.51,15.555A19.574,19.574,0,0,0,942.768,124.334Z" transform="translate(-618.012 -52.46)" opacity="0.106"/>
      <path id="Path_2952" data-name="Path 2952" d="M1045.785,84.121l.083-.021c.628,2.382-6.357,11.91-12.327,19.512l-.072-.054C1041.893,92.851,1046.267,85.949,1045.785,84.121Z" transform="translate(-742.035 -74.686)" fill="#444053"/>
      <path id="Path_2953" data-name="Path 2953" d="M993.749,148.92l.036.1c-4.764,6.062-10.77,13.3-15.569,18.657-.456.512-.911,1.048-1.349,1.6l-.137-.11c.441-.551.893-1.09,1.355-1.6C982.884,162.2,988.982,154.982,993.749,148.92Z" transform="translate(-702.19 -120.206)" fill="#444053"/>
      <path id="Path_2954" data-name="Path 2954" d="M950.982,216.41l.1.164c-8.736,10.907-9.314,27.843-9.334,27.989l-1.843-2.126C939.93,242.288,942.184,227.394,950.982,216.41Z" transform="translate(-676.326 -167.6)" fill="#444053"/>
      <path id="Path_2955" data-name="Path 2955" d="M950.971,189.688s-10.3-5.36-18.33-3.433-26.1-6.792-26.1-6.792-7.673-3.117-9.23-6.673c0,0-5.267-5.565-5.568-8.45s-5.425-10.124-8.769-10.4" transform="translate(-636.347 -123.731)" fill="none" stroke="#444053" stroke-miterlimit="10" stroke-width="1"/>
      <path id="Path_2956" data-name="Path 2956" d="M1095.411,273.469s-5.187-3.5-4.585-7.569" transform="translate(-782.279 -202.355)" fill="none" stroke="#444053" stroke-miterlimit="10" stroke-width="1"/>
      <path id="Path_2957" data-name="Path 2957" d="M1060.354,275.216s-7.417-2.695-8.164-13.256" transform="translate(-755.182 -199.588)" fill="none" stroke="#444053" stroke-miterlimit="10" stroke-width="1"/>
      <path id="Path_2958" data-name="Path 2958" d="M1027.1,277.542a16.609,16.609,0,0,1-4.737-16.162" transform="translate(-733.899 -199.18)" fill="none" stroke="#444053" stroke-miterlimit="10" stroke-width="1"/>
      <path id="Path_2959" data-name="Path 2959" d="M985.752,267.454s-4.725-9.9-.521-16.344" transform="translate(-706.936 -191.968)" fill="none" stroke="#444053" stroke-miterlimit="10" stroke-width="1"/>
      <path id="Path_2960" data-name="Path 2960" d="M1101.434,252.08s-5.36,1.7-4.213,4.526" transform="translate(-786.691 -192.65)" fill="none" stroke="#444053" stroke-miterlimit="10" stroke-width="1"/>
      <path id="Path_2961" data-name="Path 2961" d="M1072.669,219.37s-7.179,2.278-7.349,12.434" transform="translate(-764.402 -169.679)" fill="none" stroke="#444053" stroke-miterlimit="10" stroke-width="1"/>
      <path id="Path_2962" data-name="Path 2962" d="M1042.038,211.5s-6.533,8.066-6.056,15.4" transform="translate(-743.782 -164.152)" fill="none" stroke="#444053" stroke-miterlimit="10" stroke-width="1"/>
      <path id="Path_2963" data-name="Path 2963" d="M1004.483,222.12s-6.491,6.205-5.657,9.656" transform="translate(-717.654 -171.61)" fill="none" stroke="#444053" stroke-miterlimit="10" stroke-width="1"/>
      <path id="Path_2964" data-name="Path 2964" d="M988.438,212.653s-6.086,1.093-6.938-.893" transform="translate(-705.54 -164.335)" fill="none" stroke="#444053" stroke-miterlimit="10" stroke-width="1"/>
      <path id="Path_2965" data-name="Path 2965" d="M978.24,190.08s3.076,4.073,3.871,3.162" transform="translate(-703.25 -149.11)" fill="none" stroke="#444053" stroke-miterlimit="10" stroke-width="1"/>
      <path id="Path_2966" data-name="Path 2966" d="M1036.245,173.15s-15.343,1.114-18.815-3.511" transform="translate(-730.771 -134.756)" fill="none" stroke="#444053" stroke-miterlimit="10" stroke-width="1"/>
      <path id="Path_2967" data-name="Path 2967" d="M967.4,121.16s7.2,15.453,12.425,17.422" transform="translate(-695.638 -100.711)" fill="none" stroke="#444053" stroke-miterlimit="10" stroke-width="1"/>
      <path id="Path_2968" data-name="Path 2968" d="M992.76,96.44s4.422,14.215,9.9,18.651" transform="translate(-713.447 -83.352)" fill="none" stroke="#444053" stroke-miterlimit="10" stroke-width="1"/>
      <path id="Path_2969" data-name="Path 2969" d="M1058.262,141.867s-11.666,5.008-18.672-.057" transform="translate(-746.333 -115.213)" fill="none" stroke="#444053" stroke-miterlimit="10" stroke-width="0.75"/>
      <path id="Path_2970" data-name="Path 2970" d="M1027.67,86.26s2.665,10.451,6.253,12.973" transform="translate(-737.962 -76.203)" fill="none" stroke="#444053" stroke-miterlimit="10" stroke-width="0.75"/>
      <path id="Path_2971" data-name="Path 2971" d="M1075.147,102.73s-6.55,2.48-9.007.6" transform="translate(-764.978 -87.769)" fill="none" stroke="#444053" stroke-miterlimit="10" stroke-width="0.75"/>
      <path id="Path_2972" data-name="Path 2972" d="M953.523,201.55s-.018,9.108-2.483,9.754" transform="translate(-684.149 -157.165)" fill="none" stroke="#444053" stroke-miterlimit="10" stroke-width="1"/>
      <path id="Path_2973" data-name="Path 2973" d="M891.3,231.222s9.847.84,14.387-4.222" transform="translate(-642.197 -175.037)" fill="none" stroke="#444053" stroke-miterlimit="10" stroke-width="1"/>
      <path id="Path_2974" data-name="Path 2974" d="M929.716,165.41s-2.382,9.23-8.956,11.725" transform="translate(-662.885 -131.786)" fill="none" stroke="#444053" stroke-miterlimit="10" stroke-width="1"/>
      <path id="Path_2975" data-name="Path 2975" d="M871.46,199.659a12.888,12.888,0,0,0,12.964-3.749" transform="translate(-628.264 -153.204)" fill="none" stroke="#444053" stroke-miterlimit="10" stroke-width="1"/>
      <path id="Path_2976" data-name="Path 2976" d="M913.2,138.74s-.658,7.846-4.922,11.517" transform="translate(-654.121 -113.057)" fill="none" stroke="#444053" stroke-miterlimit="10" stroke-width="1"/>
      <path id="Path_2977" data-name="Path 2977" d="M872.35,164s5.786.039,7.146-1.846" transform="translate(-628.889 -129.497)" fill="none" stroke="#444053" stroke-miterlimit="10" stroke-width="1"/>
      <path id="Path_2978" data-name="Path 2978" d="M242.53,791.716s3.963-2.614,7.89-.753c0,0-1.209,2.328-6.181,2.108Z" transform="translate(-186.6 -570.609)" fill="#7164ff"/>
      <path id="Path_2979" data-name="Path 2979" d="M240.34,795.54s-1.206,4.6,1.816,7.715c0,0,1.819-1.894.015-6.53Z" transform="translate(-184.895 -574.293)" fill="#7164ff"/>
      <path id="Path_2980" data-name="Path 2980" d="M224.3,773.96s.3-3.907,9.111-2.611c0,0,.042,2.519-3.055,3.713S225.845,775.25,224.3,773.96Z" transform="translate(-173.798 -557.12)" fill="#7164ff"/>
      <path id="Path_2981" data-name="Path 2981" d="M218.273,780.65s-3.728,1.191-.4,9.466c0,0,2.459-.548,2.894-3.838S219.89,781.847,218.273,780.65Z" transform="translate(-168.313 -563.836)" fill="#7164ff"/>
      <path id="Path_2982" data-name="Path 2982" d="M205.7,748.292s-.5-6.425,8.507-5.764c0,0,.64,5.815-6.914,7.31Z" transform="translate(-160.732 -537.031)" fill="#7164ff"/>
      <path id="Path_2983" data-name="Path 2983" d="M185.72,724.676s1.233-7.28,10.24-5.109c0,0,.036,6.294-8.772,6.848Z" transform="translate(-146.706 -520.657)" fill="#7164ff"/>
      <path id="Path_2984" data-name="Path 2984" d="M171.1,699.832s2.084-7.11,10.993-4.969c0,0-2.123,6.378-10.4,6.28Z" transform="translate(-136.439 -503.31)" fill="#7164ff"/>
      <path id="Path_2985" data-name="Path 2985" d="M157.22,674.776s2.022-7.36,10.636-5.151c0,0-2.876,6.994-10.07,6.4Z" transform="translate(-126.692 -485.578)" fill="#7164ff"/>
      <path id="Path_2986" data-name="Path 2986" d="M148.27,647.32s1.554-9,9.588-7.009c0,0-2.334,8.188-9,8.319Z" transform="translate(-120.406 -465.082)" fill="#7164ff"/>
      <path id="Path_2987" data-name="Path 2987" d="M139.88,619.99s1.867-9.072,9.987-6.434c0,0-3.189,8.575-9.421,7.688Z" transform="translate(-114.515 -446.157)" fill="#7164ff"/>
      <path id="Path_2988" data-name="Path 2988" d="M134.69,589.167s2.96-9.075,9.245-8.828c0,0-3.028,9.585-8.721,10.648Z" transform="translate(-110.87 -423.164)" fill="#7164ff"/>
      <path id="Path_2989" data-name="Path 2989" d="M131.39,560.509s3.222-10.925,8.337-10.079c0,0-2.23,8.337-8.155,11.782Z" transform="translate(-108.553 -402.132)" fill="#7164ff"/>
      <path id="Path_2990" data-name="Path 2990" d="M129.51,531.46s3.022-9.1,8.072-9.46c0,0-2.057,8.956-7.959,11.83Z" transform="translate(-107.232 -382.2)" fill="#7164ff"/>
      <path id="Path_2991" data-name="Path 2991" d="M127.46,503.28s3.77-9.114,7.1-9.32c0,0-1.635,8.974-6.771,10.814Z" transform="translate(-105.793 -362.509)" fill="#7164ff"/>
      <path id="Path_2992" data-name="Path 2992" d="M126.05,473.429s2.317-9.9,5.657-10.719c0,0-.456,8.093-5.315,11.458Z" transform="translate(-104.803 -340.564)" fill="#7164ff"/>
      <path id="Path_2993" data-name="Path 2993" d="M121.85,442.56s2.436-7.888,5.133-9.09c0,0-.533,9.3-4.508,11.017Z" transform="translate(-101.853 -320.03)" fill="#7164ff"/>
      <path id="Path_2994" data-name="Path 2994" d="M117.181,408.338l-.491-13.908s5.038,10.5.863,16.362Z" transform="translate(-98.23 -292.614)" fill="#7164ff"/>
      <path id="Path_2995" data-name="Path 2995" d="M94.635,369.439S91,359.283,90.13,358.72c0,0,7.125,6.589,6.428,15.066Z" transform="translate(-79.578 -267.537)" fill="#7164ff"/>
      <path id="Path_2996" data-name="Path 2996" d="M190.259,761.842s-6.39-.837-6.2,8.194c0,0,5.776.941,7.661-6.527Z" transform="translate(-145.537 -550.614)" fill="#7164ff"/>
      <path id="Path_2997" data-name="Path 2997" d="M168.621,736.87s-7.384-.027-6.783,9.23c0,0,6.2,1.108,8.242-7.473Z" transform="translate(-129.91 -533.092)" fill="#7164ff"/>
      <path id="Path_2998" data-name="Path 2998" d="M144.933,713.108s-6.7-3.13-10.993,4.969c0,0,6.193,2.617,11.586-3.659Z" transform="translate(-110.343 -515.987)" fill="#7164ff"/>
      <path id="Path_2999" data-name="Path 2999" d="M131.025,686.476s-6.863-3.347-10.895,4.582c0,0,7.146,2.459,11.461-3.329Z" transform="translate(-100.645 -497.21)" fill="#7164ff"/>
      <path id="Path_3000" data-name="Path 3000" d="M120.547,658.623s-6.6-6.312-11.877.071c0,0,6.75,5.193,12.181,1.334Z" transform="translate(-92.598 -476.188)" fill="#7164ff"/>
      <path id="Path_3001" data-name="Path 3001" d="M113.127,629.017s-6.646-6.455-11.877.3c0,0,7.462,5.294,12.113,1.057Z" transform="translate(-87.387 -455.398)" fill="#7164ff"/>
      <path id="Path_3002" data-name="Path 3002" d="M110.708,593.8s-5.118-8.039-11.148-6.253c0,0,5.312,8.534,11.091,8.152Z" transform="translate(-86.2 -428.05)" fill="#7164ff"/>
      <path id="Path_3003" data-name="Path 3003" d="M108.22,563.953s-5.166-10.15-10.04-8.388c0,0,3.719,7.8,10.171,10.094Z" transform="translate(-85.231 -405.627)" fill="#7164ff"/>
      <path id="Path_3004" data-name="Path 3004" d="M106.472,535.26s-5.3-7.992-10.272-7.015c0,0,4.335,8.1,10.788,9.326Z" transform="translate(-83.84 -386.527)" fill="#7164ff"/>
      <path id="Path_3005" data-name="Path 3005" d="M111.784,503.333s-4.109-8.965-7.444-9.043c0,0,1.974,8.9,7.176,10.549Z" transform="translate(-89.557 -362.741)" fill="#7164ff"/>
      <path id="Path_3006" data-name="Path 3006" d="M107.734,476.6s-4.571-9.079-8-9.1c0,0,2.34,7.762,7.849,9.9Z" transform="translate(-86.319 -343.928)" fill="#7164ff"/>
      <path id="Path_3007" data-name="Path 3007" d="M109.553,446.107s-3.418-7.515-6.253-8.367c0,0,1.709,9.159,5.872,10.359Z" transform="translate(-88.826 -323.029)" fill="#7164ff"/>
      <path id="Path_3008" data-name="Path 3008" d="M98.973,412.823,91.33,401.19s1.956,11.475,8.751,13.851Z" transform="translate(-80.421 -297.362)" fill="#7164ff"/>
      <path id="Path_3009" data-name="Path 3009" d="M77.678,381.107S68.8,374.98,68.48,374c0,0,4.529,8.584,12.9,10.1Z" transform="translate(-64.374 -278.267)" fill="#7164ff"/>
      <path id="Path_3010" data-name="Path 3010" d="M67.393,365.527s-10.192-9.8-12.8-9.787a16.638,16.638,0,0,1,13.039,9.266Z" transform="translate(-54.62 -265.444)" fill="#7164ff"/>
      <path id="Path_3011" data-name="Path 3011" d="M104.576,411.162l-.372.048c-1.915-14.992-4.707-23.85-7.864-24.946l.125-.354C99.812,387.071,102.6,395.8,104.576,411.162Z" transform="translate(-83.939 -286.631)" fill="#444053"/>
      <path id="Path_3012" data-name="Path 3012" d="M125.674,503.944l-.56.048c-.119-1.4-.208-2.832-.271-4.258-.533-12.41-1.364-23.8-2.453-32.345l.325-.4c1.093,8.554,2.156,20.295,2.68,32.717C125.469,501.127,125.549,502.551,125.674,503.944Z" transform="translate(-102.232 -343.569)" fill="#444053"/>
      <path id="Path_3013" data-name="Path 3013" d="M174.85,656.43c-.1-.045-9.972-4.451-20.223-14.971a81.446,81.446,0,0,1-14.783-20.944c-4.737-9.641-7.625-21.495-8.593-33.015l.6.274c2.177,25.857,13.947,43.534,23.308,53.149,10.15,10.421,19.914,14.789,20.012,14.831Z" transform="translate(-108.454 -428.197)" fill="#444053"/>
      <path id="Path_3014" data-name="Path 3014" d="M424.516,160.175V340.268c0,5.36-5.166,9.71-11.547,9.71H168.624c-6.378,0-11.544-4.356-11.544-9.71V160.175c0-5.36,5.166-10.835,11.544-10.835l244.333.6C419.335,149.933,424.516,154.81,424.516,160.175Z" transform="translate(-126.593 -120.501)" fill="#e8eaf2"/>
      <path id="Path_3015" data-name="Path 3015" d="M424.516,160.229v8.337H157.08v-8.337a10.889,10.889,0,0,1,10.889-10.889H413.615a10.892,10.892,0,0,1,10.9,10.889Z" transform="translate(-126.593 -120.501)" fill="#65617d"/>
      <circle id="Ellipse_278" data-name="Ellipse 278" cx="3.847" cy="3.847" r="3.847" transform="translate(39.595 34.604)" fill="#fa5959" opacity="0.8"/>
      <circle id="Ellipse_279" data-name="Ellipse 279" cx="3.847" cy="3.847" r="3.847" transform="translate(50.793 34.604)" fill="#fed253" opacity="0.8"/>
      <circle id="Ellipse_280" data-name="Ellipse 280" cx="3.847" cy="3.847" r="3.847" transform="translate(61.989 34.604)" fill="#8ccf4d" opacity="0.8"/>
      <path id="Path_3016" data-name="Path 3016" d="M910.675,687.663l-6.5-9.418a8.873,8.873,0,0,0-.548-2.876c-.426-.545-.089-1.76-.089-1.76s.456-.667.06-.727-.06-1.545-.06-1.545l-.033-2.364s.366-2.272.063-2.817a.893.893,0,0,1,.03-.968s.363-1.3,0-1.638-.274-2.364-.182-3.969a6.024,6.024,0,0,0-.637-2.757c0-.244-2.4-2.605-2.4-2.817a6,6,0,0,0-2.43-1.334c-.911-.241-1.367-.423-1.337-.545s-1.426-.6-1.426-.6a2.864,2.864,0,0,1-1.763-.727c-.485-.637-1.971-.819-2.013-.825s-.021-.086-.03-.128l-.027-.137a6.668,6.668,0,0,0,.316-.6l.086-.185a2.591,2.591,0,0,0,1.489-.464,2.046,2.046,0,0,0,.726-1.453,3.176,3.176,0,0,0-.354-1.614,2.736,2.736,0,0,1-.524-1.7,7.681,7.681,0,0,1,.3-.73,1.935,1.935,0,0,0-.217-1.435c-.232-.441-.551-.828-.807-1.254a4.921,4.921,0,0,1-.643-1.786,2.765,2.765,0,0,0-.235-.965,1.838,1.838,0,0,0-.533-.539,5.315,5.315,0,0,0-3.275-.989,16.079,16.079,0,0,1-2.474.149,8.688,8.688,0,0,1-1.441-.378,3.743,3.743,0,0,0-3.082.158c-.887.584-1.239,1.73-1.84,2.626a21.246,21.246,0,0,0-1.715,2.3v-.048a2.845,2.845,0,0,0-.226.613,4.379,4.379,0,0,0,.134,2.007,1.412,1.412,0,0,0,.491.893,2.9,2.9,0,0,0,1.063.208.963.963,0,0,1-.042.173,6.932,6.932,0,0,0,4.815,8.09v.184a4.15,4.15,0,0,1-.033.521h0s-3.052-.628-3.871-.2-2.43.756-2.68,1-.852.06-1.4,1.489-.6,2.879-1.3,3.546-1.063,1.12-1.093,1.6.089.6-.185.756-.667.789-.545,1.03a.867.867,0,0,1-.333.911,1,1,0,0,0-.426.893s-.182.667-.6.819-.7,1.149-.7,1.149l-1.376,1.584-2.73-3.019a1.155,1.155,0,0,0-1.626-.083l-1.34,1.191a2.656,2.656,0,0,0-1.34.8,3.517,3.517,0,0,0-.7,1.033l-.732.661a1.864,1.864,0,0,0-.188,2.06l1.748,1.932v.018a3.087,3.087,0,0,0-1.656.718c-2.611,2.3-2.644,4.425-2.248,5.392a40.825,40.825,0,0,0,3.7,4.7,14.829,14.829,0,0,0,4.7,3.829h0l-.021.021c-.054.06-.11.122-.164.191l-.045.057c-.013.021-.027.04-.042.059l-.048.072-.039.06-.054.089-.033.057-.063.119a.334.334,0,0,0-.021.039c-.006.015-.051.107-.074.164a.533.533,0,0,0-.024.063c-.018.039-.033.08-.048.119l-.027.08a.444.444,0,0,1-.039.116l-.027.086-.036.134a.275.275,0,0,1-.024.08c-.009.027-.033.143-.048.217a.757.757,0,0,1-.015.086l-.027.158a.289.289,0,0,1-.015.11l-.018.149v.694a16.7,16.7,0,0,0,.146,4.061,1.966,1.966,0,0,0,1.611,1.209,2.1,2.1,0,0,0,.521-.027c1.578-.274,5.282-.911,6.589-.667a11.33,11.33,0,0,0,3.275-.265l.274-.054.191.6.6-.164.512.3c.134.08.244.143.322.185.6,2.034,3.031,1.34,3.031,1.34l.578.333,5.86.152a11.889,11.889,0,0,0,2.084.995,1.924,1.924,0,0,0,.3.065,13.728,13.728,0,0,0,1.635.03c.45,0,.8-.03.8-.03s-.06-1.593-.143-3.374a47.75,47.75,0,0,0,5.428-.444c3.129-.551,4.436-3.4,4.916-4.919a14.169,14.169,0,0,1,.3,1.888,14.056,14.056,0,0,0,.485,1.638,5.531,5.531,0,0,0,.67,1.212c2.308-.789.911-1.971.426-2.486s.333-.938.333-.938.637-.426.578-.819-.092-.819,1.974-.786S910.675,687.663,910.675,687.663ZM878.6,668.309a14.205,14.205,0,0,0,.575,2.531,3.236,3.236,0,0,1,.068,1c-1.224-.1-2.5-.152-2.5-.152a.3.3,0,0,1,.065.158l-.191-.045-.28-.068,2.254-3.427Zm-4.466,7.107,2.12.333.176.03a7.48,7.48,0,0,0-.11,1c0,.03.051.068.116.113a2.684,2.684,0,0,0-.039.5,5.852,5.852,0,0,0,2.159.831c-.015.063-.03.119-.048.173h0c-1-.527-2.582-.774-2.763-1.164s-5.559-2.263-5.559-2.263-.2-.1-.536-.268l1.417.268.387-.039a21.031,21.031,0,0,0,2.68.491Z" transform="translate(-618.692 -461.922)" fill="url(#linear-gradient)"/>
      <path id="Path_3017" data-name="Path 3017" d="M921.851,788.19s-.843,5.089-5.119,5.839-18.541.6-18.541.6-8.156-1.191-11.106-8.069-4.844-9.629-2.317-9.751,16.162,4.606,16.945,4.666S922.6,771,921.851,788.19Z" transform="translate(-636.783 -561.134)" fill="#65617d"/>
      <path id="Path_3018" data-name="Path 3018" d="M921.851,788.19s-.843,5.089-5.119,5.839-18.541.6-18.541.6-8.156-1.191-11.106-8.069-4.844-9.629-2.317-9.751,16.162,4.606,16.945,4.666S922.6,771,921.851,788.19Z" transform="translate(-636.783 -561.134)" opacity="0.05"/>
      <path id="Path_3019" data-name="Path 3019" d="M883.255,815.886a1.95,1.95,0,0,0,1.6,1.191,2.056,2.056,0,0,0,.515-.027c1.566-.271,5.238-.893,6.533-.661a11.212,11.212,0,0,0,3.242-.265c.682-.128,1.191-.247,1.191-.247s-1.206-4-1.355-4.124-5.419-3.275-5.419-3.275l-4.169-.3h0a2.209,2.209,0,0,0-1.414.831,4.438,4.438,0,0,0-.843,2.84A16.459,16.459,0,0,0,883.255,815.886Z" transform="translate(-636.448 -583.169)" fill="#3f3d56"/>
      <path id="Path_3020" data-name="Path 3020" d="M883.247,815.865a1.95,1.95,0,0,0,1.6,1.191,16.775,16.775,0,0,1-1.131-1.652l.021-2.918a5.145,5.145,0,0,1,1.638-4.335h0s-2.2.149-2.257,3.671A17.881,17.881,0,0,0,883.247,815.865Z" transform="translate(-636.44 -583.148)" opacity="0.05"/>
      <path id="Path_3021" data-name="Path 3021" d="M938.6,791.085l3.871-3.04,6.11-6.02s-.658-.033-1.655-.074c-.247.158-.941.655-.968,1.256-.03.735-1.65.051-2.492.474s-4.967,5.7-5.69,5.657-1.3-.366-1.6.146l-.021.033Z" transform="translate(-673.7 -564.749)" opacity="0.1"/>
      <path id="Path_3022" data-name="Path 3022" d="M885.93,809.062l.423.194a26.216,26.216,0,0,1,6.848,4.395,28.371,28.371,0,0,0,3.907,2.534c.682-.128,1.191-.247,1.191-.247s-1.206-4-1.355-4.124-5.419-3.275-5.419-3.275l-4.169-.3h0A2.209,2.209,0,0,0,885.93,809.062Z" transform="translate(-638.426 -583.211)" opacity="0.1"/>
      <path id="Path_3023" data-name="Path 3023" d="M857.987,767.628a40.485,40.485,0,0,0,3.674,4.666,14.5,14.5,0,0,0,5.026,3.972,26.8,26.8,0,0,1,6.863,4.395,33.454,33.454,0,0,0,4.169,2.7l.372.217.822.476.435.25,2.01-1.623c.992-.8,1.977-1.614,1.992-1.659.03-.089.423-1.113.331-1.173-.045-.033-.253-.447-.634-.932a4.223,4.223,0,0,0-1.533-1.265,4.369,4.369,0,0,1-1.986-2.084s-.131-.1-.331-.22a3.987,3.987,0,0,0-1.355-.6c-.661-.083-1.894-1.438-1.894-1.438a3.706,3.706,0,0,1-1.176-1.233c-.316-.661-4.984-3.871-5.416-4.169l11.315,7.268,2.707,1.739,3.871-3.04,6.113-6.018s-.822-.042-2.019-.092c-2.977-.128-8.242-.331-8.909-.179a5.117,5.117,0,0,1-1.656.107,5.814,5.814,0,0,1-2.5-.458c-1.009-.527-2.558-.768-2.739-1.158s-5.508-2.254-5.508-2.254-7.253-3.853-9.844-1.566S857.6,766.664,857.987,767.628Z" transform="translate(-618.672 -550.413)" fill="#65617d"/>
      <path id="Path_3024" data-name="Path 3024" d="M937,686.729l.932,3.1,1.191,6.982,4.425.3,1.28-2.123,1.277-2.12s.8-2.823,1.37-5.55c.506-2.418.837-4.764.3-5.014-.488-.226-.81-1.039-1.018-1.915-.027-.107-.051-.217-.072-.328a16.887,16.887,0,0,1-.3-2.245s-9.272-.479-7.977,3.344a6.048,6.048,0,0,1,.348,2.031,4.8,4.8,0,0,1-.03.518A4.335,4.335,0,0,1,937,686.729Z" transform="translate(-674.29 -491.607)" fill="#ee8e9e"/>
      <path id="Path_3025" data-name="Path 3025" d="M930.51,700.2l.331,5.267.753,4.484.843,2.084.753,11.365s7.256.84,9.022-.015a.784.784,0,0,0,.319-.25c2.12-3.228,1.435-12.538,1.435-12.538l.813-6.018-.542-3.126-1.31-.137-1.009-.11s-.226.28-.554.715c-.893,1.191-2.534,3.5-2.424,4.466.149,1.325-.182,2.68-.694,2.891s-.932.572-1.024.208a1.643,1.643,0,0,1-.089-.962,8.02,8.02,0,0,0-.39-2.084,8.717,8.717,0,0,1-.753-2.617,3.088,3.088,0,0,0-.33-1.9c-.241-.211-.572-.423-.3-1.385s-1.191-2.838-1.191-2.838Z" transform="translate(-669.732 -505.585)" fill="#e3e8f4"/>
      <path id="Path_3026" data-name="Path 3026" d="M962.681,705.358l.3,9,1.739.962a.757.757,0,0,0,.319-.247c2.132-3.222,1.432-12.544,1.432-12.544l.813-6.021-.542-3.123-1.307-.14c.506-2.415.837-4.764.3-5.014-.488-.226-.81-1.039-1.018-1.911h0l-.938,6.366s.078.575.1,1.167a3.272,3.272,0,0,1-.074,1.12,3.739,3.739,0,0,0-.059,1.507,12.174,12.174,0,0,0-.947,4.436C962.612,703.2,962.681,705.358,962.681,705.358Z" transform="translate(-692.315 -497.593)" opacity="0.1"/>
      <path id="Path_3027" data-name="Path 3027" d="M965.149,685.83s1.519.19,2,.822a2.851,2.851,0,0,0,1.748.724,6.639,6.639,0,0,1,1.414.6c-.03.116.42.3,1.325.542a5.946,5.946,0,0,1,2.406,1.325c0,.211,2.382,2.558,2.382,2.8a5.974,5.974,0,0,1,.631,2.739c-.092,1.6-.179,3.612.182,3.942s0,1.626,0,1.626a.893.893,0,0,0-.03.962,8.332,8.332,0,0,1-.06,2.8l.03,2.349s-.331,1.489.059,1.534-.059.723-.059.723-.331,1.191.089,1.745a8.959,8.959,0,0,1,.542,2.861l6.44,9.361s.092,1.715-1.956,1.685-2.016.39-1.956.783-.572.81-.572.81-.813.423-.33.935,1.867,1.685-.423,2.468a5.531,5.531,0,0,1-.661-1.191,13.573,13.573,0,0,1-.482-1.623s-.212-2.29-.631-2.59-.351-1.754-.351-1.754.6-1.173-.241-1.655-13.065-7.253-13.065-7.253l-.3-9s-.208-6.652,1.054-8.879a3.792,3.792,0,0,1,.06-1.507,7.882,7.882,0,0,0-.03-2.287Z" transform="translate(-692.735 -497.249)" fill="#3f3d56"/>
      <path id="Path_3028" data-name="Path 3028" d="M917.168,697.179s-3.025-.622-3.838-.2-2.409.753-2.65.995-.843.059-1.385,1.489-.6,2.861-1.3,3.523-1.051,1.113-1.081,1.6.089.6-.182.753-.664.78-.542,1.021,6.253,5.538,6.253,5.538a14.12,14.12,0,0,0,.572,2.528c.274.509-.3,7.557-.893,8.039s4.064.435,4.064.435.212-4.621.393-4.859a47.746,47.746,0,0,0-.122-5.178,29.6,29.6,0,0,1,.36-5.33,24.447,24.447,0,0,0,.349-4.815,9.965,9.965,0,0,1,.765-2.739C918.356,699.454,917.168,697.179,917.168,697.179Z" transform="translate(-652.642 -504.975)" opacity="0.1"/>
      <path id="Path_3029" data-name="Path 3029" d="M916.868,696.836s-3.028-.625-3.841-.2-2.406.753-2.647.995-.843.06-1.385,1.474-.6,2.858-1.3,3.522-1.054,1.114-1.084,1.593.093.6-.179.753-.664.783-.542,1.024,6.268,5.532,6.268,5.532a14.168,14.168,0,0,0,.572,2.528c.274.512-.3,7.554-.893,8.039s4.047.45,4.047.45.211-4.621.39-4.862a48.55,48.55,0,0,0-.119-5.178,29.549,29.549,0,0,1,.36-5.327,24.435,24.435,0,0,0,.349-4.815,9.96,9.96,0,0,1,.765-2.739C918.053,699.105,916.868,696.836,916.868,696.836Z" transform="translate(-652.431 -504.733)" fill="#3f3d56"/>
      <path id="Path_3030" data-name="Path 3030" d="M941.437,681.168a6.047,6.047,0,0,1,.348,2.031,6.9,6.9,0,0,0,7.923-3.129,16.908,16.908,0,0,1-.3-2.245S940.142,677.345,941.437,681.168Z" transform="translate(-677.319 -491.614)" opacity="0.1"/>
      <path id="Path_3031" data-name="Path 3031" d="M926.37,656.862a6.884,6.884,0,1,0,.149-1.432A6.884,6.884,0,0,0,926.37,656.862Z" transform="translate(-666.825 -472.066)" fill="#ee8e9e"/>
      <path id="Path_3032" data-name="Path 3032" d="M897.289,726.7l-1.641.512a.858.858,0,0,1-.334.893,1.01,1.01,0,0,0-.42.893s-.182.664-.6.813-.694,1.146-.694,1.146l-1.385,1.593s-.512.423-.42.634-.542.271-.542.271l.33,5.36,2.859.542,1.786-.182,1.444-.542,1.262-.75.575-1.489,2.528-3.853Z" transform="translate(-642.169 -525.95)" fill="#3f3d56"/>
      <path id="Path_3033" data-name="Path 3033" d="M875.2,743.112s-3.671-5.3-6.411-2.439,1.114,7.495,2.016,7.346,5.208-.4,5.208-.4Z" transform="translate(-625.708 -535.168)" fill="#ee8e9e"/>
      <rect id="Rectangle_1936" data-name="Rectangle 1936" width="19.22" height="14.923" rx="1.54" transform="translate(241.462 197.151) rotate(27.04)" fill="#3f3d56"/>
      <rect id="Rectangle_1937" data-name="Rectangle 1937" width="16.156" height="12.175" transform="translate(242.227 199.053) rotate(27.04)" fill="#7164ff"/>
      <circle id="Ellipse_281" data-name="Ellipse 281" cx="0.265" cy="0.265" r="0.265" transform="translate(238.655 203.915)" fill="#e6e8ec"/>
      <circle id="Ellipse_282" data-name="Ellipse 282" cx="0.438" cy="0.438" r="0.438" transform="translate(254.058 211.722)" fill="#e6e8ec"/>
      <path id="Path_3034" data-name="Path 3034" d="M884.62,750.2c-.03,3.975,8.185,4.815,8.185,4.815l2.084.333.941.149.393-3.871s-.432-.062-.971-.188c-.795-.187-1.825-.506-2.039-.956C892.865,749.728,884.65,746.232,884.62,750.2Z" transform="translate(-637.506 -541.147)" fill="#ee8e9e"/>
      <path id="Path_3035" data-name="Path 3035" d="M926.87,655.487a.8.8,0,0,1,.5.226c.235.247.247.682.548.834a.6.6,0,0,0,.36.042c.8-.113,1.262-1.015,2.031-1.265a2.084,2.084,0,0,1,1.349.116,1,1,0,0,1,.443.3c.259.334.078.825.2,1.227.167.56.834.78,1.411.855a2.474,2.474,0,0,1,1.614.548,1.47,1.47,0,0,1,.3,1.167.907.907,0,0,0,0,.429c.161.453.941.384,1.146.03.149-.259.1-.476.453-.548a1.5,1.5,0,0,1,.739.128,5.385,5.385,0,0,0,1.906.3,6.893,6.893,0,1,0-12.982-4.365Z" transform="translate(-667.176 -472.123)" opacity="0.1"/>
      <path id="Path_3036" data-name="Path 3036" d="M931.609,651.034a.918.918,0,0,1,0-.432,1.468,1.468,0,0,0-.3-1.164,2.443,2.443,0,0,0-1.614-.551c-.578-.072-1.245-.3-1.411-.855-.119-.4.063-.893-.2-1.224a.95.95,0,0,0-.444-.3,2.034,2.034,0,0,0-1.349-.116c-.768.247-1.23,1.152-2.031,1.265a.645.645,0,0,1-.36-.042c-.3-.152-.316-.6-.548-.837-.363-.387-1.057-.137-1.507-.423a1.393,1.393,0,0,1-.485-.893,4.367,4.367,0,0,1-.134-2c.262-1.12,1.262-1.888,1.9-2.843.6-.893.929-2.019,1.825-2.608a3.656,3.656,0,0,1,3.052-.158,8.929,8.929,0,0,0,1.429.375,15.772,15.772,0,0,0,2.45-.149,5.27,5.27,0,0,1,3.237.983,1.807,1.807,0,0,1,.527.536,2.73,2.73,0,0,1,.235.956,4.9,4.9,0,0,0,.634,1.763c.253.423.572.807.8,1.245A1.926,1.926,0,0,1,937.54,645c-.077.247-.229.47-.3.724a2.7,2.7,0,0,0,.518,1.691,3.219,3.219,0,0,1,.351,1.6,2.022,2.022,0,0,1-.724,1.444,2.581,2.581,0,0,1-1.524.461,5.394,5.394,0,0,1-1.944-.3,1.535,1.535,0,0,0-.735-.128c-.351.074-.3.3-.456.548C932.549,651.421,931.769,651.483,931.609,651.034Z" transform="translate(-663.175 -463.385)" fill="#3f3d56"/>
      <path id="Path_3037" data-name="Path 3037" d="M937.338,791.65l3.871-3.04,6.113-6.018s-.822-.042-2.019-.092a1.333,1.333,0,0,0-.426.822c-.03.735-1.65.051-2.492.474s-4.967,5.7-5.69,5.657-1.3-.366-1.6.146l-.021.033a.864.864,0,0,1-.459.274Z" transform="translate(-672.618 -565.135)" opacity="0.1"/>
      <path id="Path_3038" data-name="Path 3038" d="M917.47,786.5l1.944,6.226.3.98.929-.256,2.049-.563,9.123-2.5a7.929,7.929,0,0,0,3.275-.893,9.951,9.951,0,0,1,5.657-1.236c1.191.113,2.546-.408,3.659-2.462,0,0,2.528-7.465-3.853-9.6s-6.688,1.137-6.688,1.137l-.086.054c-.247.158-.941.655-.968,1.257-.03.735-1.65.051-2.492.474s-4.967,5.7-5.69,5.657-1.3-.366-1.6.146l-.021.033c-.223.3-.893.378-1.337.393h-.417l-.057.018-.464.137Z" transform="translate(-660.575 -560.197)" fill="#65617d"/>
      <path id="Path_3039" data-name="Path 3039" d="M919.16,762.669l.941.149.393-3.871s-.432-.062-.97-.188A19.684,19.684,0,0,1,919.16,762.669Z" transform="translate(-661.762 -548.464)" opacity="0.1"/>
      <path id="Path_3040" data-name="Path 3040" d="M944.112,710.776s2.8-.813,2.105,7.146a22.175,22.175,0,0,1-5.869,12.973s-5.955,2.617-8.635,2.2-4.636-.512-4.636-.512a6.793,6.793,0,0,0-2.709-.724c-1.489-.06-4.666-.991-4.725-1.3s.783-4.725.42-5.062c0,0,4.216.173,4.636.479s1.024.086,1.489,0a5.134,5.134,0,0,1,4.573-.238,2.8,2.8,0,0,0,1.3-.149,1.3,1.3,0,0,1,.941-.062,2.621,2.621,0,0,0,.655-.331c.089-.119.813,0,.813,0a.318.318,0,0,0,.45-.211,1.99,1.99,0,0,1,.423-.661s.813-4.576,2.346-6.292a.973.973,0,0,0,.33-.872C937.88,716.662,940.5,709.8,944.112,710.776Z" transform="translate(-662.099 -514.701)" opacity="0.1"/>
      <path id="Path_3041" data-name="Path 3041" d="M943.862,708.691s2.8-.813,2.1,7.146A22.174,22.174,0,0,1,940.1,728.81s-5.955,2.617-8.635,2.2-4.636-.512-4.636-.512a6.777,6.777,0,0,0-2.71-.724c-1.489-.06-4.666-.992-4.725-1.3s.783-4.725.423-5.062c0,0,4.213.173,4.633.479s1.024.086,1.489,0a5.135,5.135,0,0,1,4.573-.238,2.768,2.768,0,0,0,1.3-.152,1.3,1.3,0,0,1,.941-.06,2.621,2.621,0,0,0,.655-.331c.089-.119.813,0,.813,0a.319.319,0,0,0,.45-.211,1.987,1.987,0,0,1,.423-.661s.813-4.576,2.346-6.292a.979.979,0,0,0,.334-.872C937.63,714.589,940.25,707.726,943.862,708.691Z" transform="translate(-661.923 -513.238)" fill="#3f3d56"/>
      <path id="Path_3042" data-name="Path 3042" d="M928.56,808.877l3.978,4.812.024-.027c.03-.092.42-1.117.331-1.176a5.593,5.593,0,0,0-2.168-2.2,4.084,4.084,0,0,1-1.7-1.548Z" transform="translate(-668.363 -583.562)" opacity="0.1"/>
      <path id="Path_3043" data-name="Path 3043" d="M928.547,824.625l.435.25,2.01-1.623c.992-.8,1.977-1.614,1.992-1.658.03-.089.423-1.114.331-1.173-.045-.033-.253-.447-.634-.932-2.68-.753-.977,1.117-.75,1.191a2.745,2.745,0,0,0-3.46,2.82A4.227,4.227,0,0,0,928.547,824.625Z" transform="translate(-668.293 -590.985)" opacity="0.1"/>
      <path id="Path_3044" data-name="Path 3044" d="M932.526,826.141l.572.33,5.809.149a11.766,11.766,0,0,0,2.057.991,1.781,1.781,0,0,0,.3.063,12.9,12.9,0,0,0,1.62.03c.444,0,.789-.03.789-.03s-.277-7.325-.482-8.1c-.1-.369-.6-.3-1.066-.1a7.106,7.106,0,0,0-1.042.527,18.331,18.331,0,0,0-2.858.453c-.39.214-1.507-.122-2.2,0s-1.927-.816-1.927-.816c-3.371-1.114-1.489.965-1.236,1.054a2.745,2.745,0,0,0-3.46,2.82C929.218,827.085,932.526,826.141,932.526,826.141Z" transform="translate(-668.949 -590.986)" fill="#3f3d56"/>
      <path id="Path_3045" data-name="Path 3045" d="M968.107,823.32a9.8,9.8,0,0,0,1.953,4.395c.444,0,.789-.03.789-.03s-.277-7.325-.482-8.1c-.1-.369-.6-.3-1.066-.1A8.7,8.7,0,0,0,968.107,823.32Z" transform="translate(-696.134 -590.996)" fill="#565387"/>
      <path id="Path_3046" data-name="Path 3046" d="M968.107,823.32a9.8,9.8,0,0,0,1.953,4.395c.444,0,.789-.03.789-.03s-.277-7.325-.482-8.1c-.1-.369-.6-.3-1.066-.1A8.7,8.7,0,0,0,968.107,823.32Z" transform="translate(-696.134 -590.996)" opacity="0.1"/>
      <path id="Path_3047" data-name="Path 3047" d="M964.549,823.522c.4,1.465.4,3.106,1.033,4.1a1.784,1.784,0,0,0,.3.063,12.869,12.869,0,0,0,1.62.03c.443,0,.789-.03.789-.03s-.277-7.325-.482-8.1c-.1-.369-.6-.3-1.066-.1a7.118,7.118,0,0,0-1.042.527S964.037,821.646,964.549,823.522Z" transform="translate(-693.567 -590.996)" opacity="0.05"/>
      <path id="Path_3048" data-name="Path 3048" d="M897.47,783.54a12.017,12.017,0,0,1,5.33,4.267Z" transform="translate(-646.53 -565.866)" opacity="0.1"/>
      <g id="Group_1326" data-name="Group 1326" transform="translate(258.001 179.502)" opacity="0.1">
        <path id="Path_3049" data-name="Path 3049" d="M975.939,662.24l-.018.065a1.988,1.988,0,0,1-.1.25,2.009,2.009,0,0,1,.119-.316Z" transform="translate(-959.552 -660.185)"/>
        <path id="Path_3050" data-name="Path 3050" d="M921.246,655.935a2.788,2.788,0,0,1,.223-.6.807.807,0,0,1-.042.155,4.3,4.3,0,0,0,.134,2,1.382,1.382,0,0,0,.485.893c.447.3,1.141.039,1.507.426.232.244.244.682.548.834a.619.619,0,0,0,.36.042c.8-.113,1.262-1.018,2.031-1.266a2.024,2.024,0,0,1,1.346.116,1.026,1.026,0,0,1,.447.3c.256.333.078.822.2,1.227.164.557.831.78,1.408.852a2.474,2.474,0,0,1,1.617.551,1.488,1.488,0,0,1,.3,1.164.9.9,0,0,0,0,.432c.158.453.938.384,1.143.027.149-.259.1-.473.456-.545a1.46,1.46,0,0,1,.735.128,5.471,5.471,0,0,0,1.944.3,2.614,2.614,0,0,0,1.527-.465,1.73,1.73,0,0,0,.468-.569,1.915,1.915,0,0,1-.649,1.021,2.588,2.588,0,0,1-1.524.461,5.4,5.4,0,0,1-1.944-.3,1.542,1.542,0,0,0-.738-.128c-.351.074-.3.3-.456.548-.2.357-.983.423-1.143-.027a.962.962,0,0,1,0-.432,1.456,1.456,0,0,0-.3-1.164,2.444,2.444,0,0,0-1.614-.551c-.578-.071-1.245-.3-1.411-.855-.119-.4.063-.893-.2-1.224a.965.965,0,0,0-.443-.3,2.034,2.034,0,0,0-1.349-.116c-.768.247-1.233,1.152-2.031,1.265a.646.646,0,0,1-.36-.042c-.3-.152-.316-.6-.548-.837-.366-.387-1.057-.137-1.506-.423a1.382,1.382,0,0,1-.485-.893A4.328,4.328,0,0,1,921.246,655.935Z" transform="translate(-921.185 -655.34)"/>
      </g>
      <path id="Path_3051" data-name="Path 3051" d="M972.107,734.848c-.554.744-1.191,1.432-1.67,2.221a4.215,4.215,0,0,0-.732,2.626,6.861,6.861,0,0,0,1.057-1.882,26.5,26.5,0,0,1,2.025-3.046c.128-.194.959-1.31.539-1.361C972.976,733.363,972.294,734.6,972.107,734.848Z" transform="translate(-697.251 -530.659)" opacity="0.1"/>
      <path id="Path_3052" data-name="Path 3052" d="M281.118,374.567H256.485a.822.822,0,1,0,0,1.641h24.633a.822.822,0,1,0,0-1.641Zm0,2.814H256.485a.822.822,0,1,0,0,1.644h24.633a.822.822,0,0,0,0-1.644Zm-1.236-18.991H257.724a2.063,2.063,0,0,0-2.06,2.057v10.421a2.063,2.063,0,0,0,2.06,2.057h22.159a2.063,2.063,0,0,0,2.057-2.057V360.447A2.063,2.063,0,0,0,279.883,358.39Zm-19.411,12.669h-2.111a.822.822,0,1,1,0-1.644h2.111a.822.822,0,0,1,0,1.644Zm0-9.15h-2.111a.822.822,0,1,1,0-1.644h2.111a.822.822,0,1,1,0,1.644Zm8.337,8.444a4.7,4.7,0,1,0-.006,0Zm10.442.706H277.14a.822.822,0,0,1,0-1.644h2.111a.822.822,0,1,1,0,1.644Zm0-9.15H277.14a.822.822,0,1,1,0-1.644h2.111a.822.822,0,1,1,0,1.644Z" transform="translate(-195.788 -267.305)" fill="#fff"/>
      <circle id="Ellipse_283" data-name="Ellipse 283" cx="3.109" cy="3.109" r="3.109" transform="translate(69.906 95.36)" fill="#fff"/>
      <rect id="Rectangle_1938" data-name="Rectangle 1938" width="111.863" height="62.105" transform="translate(120.104 70.346)" fill="#7164ff" opacity="0.2"/>
      <rect id="Rectangle_1939" data-name="Rectangle 1939" width="111.863" height="62.105" transform="translate(120.104 146.345)" fill="#7164ff" opacity="0.2"/>
      <rect id="Rectangle_1940" data-name="Rectangle 1940" width="3.385" height="11.344" transform="translate(142.102 113.592)" fill="#fff"/>
      <rect id="Rectangle_1941" data-name="Rectangle 1941" width="3.385" height="25.389" transform="translate(148.549 99.547)" fill="#fff"/>
      <rect id="Rectangle_1942" data-name="Rectangle 1942" width="3.385" height="38.044" transform="translate(154.998 86.892)" fill="#dfe3ef"/>
      <rect id="Rectangle_1943" data-name="Rectangle 1943" width="3.385" height="47.072" transform="translate(161.447 77.864)" fill="#fff"/>
      <rect id="Rectangle_1944" data-name="Rectangle 1944" width="3.385" height="47.072" transform="translate(154.998 77.864)" fill="#7164ff"/>
      <rect id="Rectangle_1945" data-name="Rectangle 1945" width="3.385" height="25.875" transform="translate(167.894 99.061)" fill="#7164ff"/>
      <rect id="Rectangle_1946" data-name="Rectangle 1946" width="3.385" height="32.562" transform="translate(174.343 92.374)" fill="#7164ff" opacity="0.2"/>
      <rect id="Rectangle_1947" data-name="Rectangle 1947" width="3.385" height="42.719" transform="translate(180.789 82.217)" fill="#7164ff"/>
      <rect id="Rectangle_1948" data-name="Rectangle 1948" width="3.385" height="19.023" transform="translate(187.239 105.913)" fill="#7164ff" opacity="0.2"/>
      <rect id="Rectangle_1949" data-name="Rectangle 1949" width="3.385" height="27.807" transform="translate(193.688 97.129)" fill="#7164ff"/>
      <rect id="Rectangle_1950" data-name="Rectangle 1950" width="3.385" height="38.044" transform="translate(200.134 86.892)" fill="#7164ff" opacity="0.2"/>
      <rect id="Rectangle_1951" data-name="Rectangle 1951" width="3.385" height="38.044" transform="translate(206.584 86.892)" fill="#7164ff"/>
      <path id="Path_3053" data-name="Path 3053" d="M282.027,618.626a1.882,1.882,0,0,0-1.876-1.876H257.638a1.885,1.885,0,0,0-1.879,1.876v2.817h26.268ZM255.75,633.641a1.885,1.885,0,0,0,1.879,1.879h22.522a1.882,1.882,0,0,0,1.876-1.879v-9.373H255.759Zm8.337-2.814h9.62a.822.822,0,1,1,0,1.641h-9.62a.822.822,0,0,1,0-1.641Zm-4.222,0h.7a.822.822,0,1,1,0,1.641h-.7a.822.822,0,1,1,0-1.641Z" transform="translate(-195.884 -448.738)" fill="#fff"/>
      <rect id="Rectangle_1952" data-name="Rectangle 1952" width="3.385" height="11.344" transform="translate(142.102 189.587)" fill="#fff"/>
      <rect id="Rectangle_1953" data-name="Rectangle 1953" width="3.385" height="25.389" transform="translate(148.549 175.542)" fill="#fff"/>
      <rect id="Rectangle_1954" data-name="Rectangle 1954" width="3.385" height="38.044" transform="translate(154.998 162.888)" fill="#dfe3ef"/>
      <rect id="Rectangle_1955" data-name="Rectangle 1955" width="3.385" height="47.072" transform="translate(161.447 153.86)" fill="#fff"/>
      <rect id="Rectangle_1956" data-name="Rectangle 1956" width="3.385" height="47.072" transform="translate(154.998 153.86)" fill="#7164ff"/>
      <rect id="Rectangle_1957" data-name="Rectangle 1957" width="3.385" height="25.875" transform="translate(167.894 175.057)" fill="#7164ff"/>
      <rect id="Rectangle_1958" data-name="Rectangle 1958" width="3.385" height="32.562" transform="translate(174.343 168.369)" fill="#fff"/>
      <rect id="Rectangle_1959" data-name="Rectangle 1959" width="3.385" height="42.719" transform="translate(180.789 158.213)" fill="#fff"/>
      <rect id="Rectangle_1960" data-name="Rectangle 1960" width="3.385" height="19.023" transform="translate(187.239 181.908)" fill="#7164ff" opacity="0.2"/>
      <rect id="Rectangle_1961" data-name="Rectangle 1961" width="3.385" height="27.807" transform="translate(193.688 173.124)" fill="#7164ff" opacity="0.2"/>
      <rect id="Rectangle_1962" data-name="Rectangle 1962" width="3.385" height="38.044" transform="translate(200.134 162.888)" fill="#7164ff" opacity="0.2"/>
      <rect id="Rectangle_1963" data-name="Rectangle 1963" width="3.385" height="38.044" transform="translate(206.584 162.888)" fill="#7164ff" opacity="0.2"/>
    </g>
    <rect id="Rectangle_1934" data-name="Rectangle 1934" width="7" height="170" rx="3.5" transform="translate(221 161)" fill="#e8e8e8"/>
  </g>
</svg>
