<svg xmlns="http://www.w3.org/2000/svg" width="77.162" height="46" viewBox="0 0 77.162 46">
  <g id="Group_1248" data-name="Group 1248" transform="translate(-153 -3221)">
    <rect id="Rectangle_1617" data-name="Rectangle 1617" width="8" height="46" rx="2" transform="translate(153 3221)" fill="#fff"/>
    <rect id="Rectangle_1618" data-name="Rectangle 1618" width="9" height="32" rx="2" transform="translate(166 3228)" fill="#fff"/>
    <rect id="Rectangle_1619" data-name="Rectangle 1619" width="8" height="12" rx="2" transform="translate(180 3238)" fill="#fff"/>
    <path id="Path_1814" data-name="Path 1814" d="M-4061.464,4395.045c0-.075,0-.15,0-.226.018-2.168.04-4.335.049-6.5a1.635,1.635,0,0,1,.2-.791,3.477,3.477,0,0,1,1.286-1.392,2.918,2.918,0,0,1,3.844.972,7.341,7.341,0,0,1,.4.728.663.663,0,0,1,.043.282q.026,7.105.049,14.21c0,.082,0,.165,0,.3.085-.076.136-.119.185-.164.445-.414.879-.841,1.338-1.24a5.292,5.292,0,0,1,3.347-1.3,5.843,5.843,0,0,1,3.3.815,1.22,1.22,0,0,1,.573,1.386.3.3,0,0,1-.086.123q-5.2,5.175-10.41,10.344a8.951,8.951,0,0,1-4.444,2.32,6.347,6.347,0,0,1-1.272.105,13.4,13.4,0,0,1-2.632-.127,8.265,8.265,0,0,1-2.776-1.108,9.438,9.438,0,0,1-4.552-6.433,6.492,6.492,0,0,1-.1-1.275c-.013-1.979-.012-3.96-.014-5.939a.447.447,0,0,1,.032-.187,3.406,3.406,0,0,1,1.352-1.6c2.221-1.283,4.416-2.614,6.64-3.893a2.82,2.82,0,0,1,3.362.406l.229.2Zm1.416,4.131c-.1-.118-.162-.2-.228-.277-.817-.97-1.627-1.945-2.454-2.906a1.2,1.2,0,0,0-1.473-.319,6.468,6.468,0,0,0-.676.339q-2.517,1.456-5.029,2.924c-.468.274-.919.579-1.366.887a.862.862,0,0,0-.4.779q.031,2.834.01,5.669a4.672,4.672,0,0,0,.206,1.369,8.18,8.18,0,0,0,3.144,4.49,7.779,7.779,0,0,0,5.947,1.359,6.407,6.407,0,0,0,3.078-1.239c.539-.433,1.067-.885,1.561-1.368q4.565-4.467,9.111-8.954c.035-.035.066-.074.1-.11-.017-.02-.024-.033-.034-.037a4.091,4.091,0,0,0-4.33.391c-.681.509-1.279,1.129-1.915,1.7-.271.241-.546.476-.816.718a.472.472,0,0,1-.539.069,1.532,1.532,0,0,1-.746-.652.663.663,0,0,1-.112-.315c-.031-4.032-.051-8.063-.083-12.1-.009-1.093-.047-2.186-.081-3.279a.81.81,0,0,0-.109-.384,1.479,1.479,0,0,0-2.5,0,.477.477,0,0,0-.074.215c-.028.413-.061.826-.066,1.24q-.061,4.785-.112,9.571C-4060.038,4399.014-4060.042,4399.07-4060.048,4399.176Z" transform="translate(4276.967 -1158.018)" fill="#fff"/>
  </g>
</svg>
