<svg xmlns="http://www.w3.org/2000/svg" width="63.67" height="40" viewBox="0 0 63.67 40">
  <g id="Group_1247" data-name="Group 1247" transform="translate(-572 -3227)">
    <rect id="Rectangle_1530" data-name="Rectangle 1530" width="15" height="11" rx="2" transform="translate(572 3227)" fill="#fff"/>
    <rect id="Rectangle_1528" data-name="Rectangle 1528" width="37" height="11" rx="2" transform="translate(572 3241)" fill="#fff"/>
    <rect id="Rectangle_1529" data-name="Rectangle 1529" width="20" height="11" rx="2" transform="translate(572 3256)" fill="#fff"/>
    <path id="Icon_material-timer" data-name="Icon material-timer" d="M17.122,1.5H10.811V3.6h6.311ZM12.914,15.174h2.1V8.863h-2.1Zm8.446-6.952,1.494-1.494a11.621,11.621,0,0,0-1.483-1.483L19.877,6.738a9.466,9.466,0,1,0,1.483,1.483ZM13.966,21.484a7.363,7.363,0,1,1,7.363-7.363A7.357,7.357,0,0,1,13.966,21.484Z" transform="translate(612.237 3232.719)" fill="#fff"/>
  </g>
</svg>
