<svg xmlns="http://www.w3.org/2000/svg" width="49.185" height="27.447" viewBox="0 0 49.185 27.447">
  <path id="Path_3054" data-name="Path 3054" d="M2.535-16.087l13.93-7.292v3.7a1.368,1.368,0,0,1-.206.731,1.67,1.67,0,0,1-.654.576l-4.884,2.631a5.8,5.8,0,0,1-.946.4q-.5.163-1.049.3.55.138,1.049.284a4.89,4.89,0,0,1,.946.387l4.884,2.648a1.7,1.7,0,0,1,.654.568,1.325,1.325,0,0,1,.206.722v3.7L2.535-14.006ZM24.892-3.653a3.115,3.115,0,0,1-.49.825,3.012,3.012,0,0,1-.671.6,2.9,2.9,0,0,1-.791.361,3.025,3.025,0,0,1-.834.12h-2.27L29.6-27.386a2.756,2.756,0,0,1,1.049-1.341,2.9,2.9,0,0,1,1.634-.464h2.27ZM51.72-14.006,37.79-6.732v-3.7A1.325,1.325,0,0,1,38-11.151a1.7,1.7,0,0,1,.654-.568l4.884-2.648a4.409,4.409,0,0,1,.937-.387q.507-.146,1.058-.284-.55-.138-1.058-.3a5.132,5.132,0,0,1-.937-.4L38.65-18.374A1.67,1.67,0,0,1,38-18.95a1.368,1.368,0,0,1-.206-.731v-3.7l13.93,7.292Z" transform="translate(-2.535 29.192)" fill="#fff"/>
</svg>
