<svg xmlns="http://www.w3.org/2000/svg" width="41.959" height="43.798" viewBox="0 0 41.959 43.798">
  <g id="Group_1328" data-name="Group 1328" transform="translate(-66 -575.202)">
    <g id="Group_1245" data-name="Group 1245" transform="translate(-89.02 -1764.996)">
      <path id="Path_3055" data-name="Path 3055" d="M8.384-12.6a4.387,4.387,0,0,1-.316,1.7,4.006,4.006,0,0,1-.845,1.294,3.671,3.671,0,0,1-1.23.822A3.815,3.815,0,0,1,4.531-8.5,4,4,0,0,1,3-8.786a3.491,3.491,0,0,1-1.213-.822,3.783,3.783,0,0,1-.8-1.294A4.775,4.775,0,0,1,.7-12.6a5.036,5.036,0,0,1,.288-1.748,3.8,3.8,0,0,1,.8-1.323A3.52,3.52,0,0,1,3-16.508a3.926,3.926,0,0,1,1.53-.293,3.969,3.969,0,0,1,1.535.293,3.566,3.566,0,0,1,1.225.834,3.759,3.759,0,0,1,.8,1.323A5.036,5.036,0,0,1,8.384-12.6Zm-2.2,0a4.177,4.177,0,0,0-.126-1.116,2,2,0,0,0-.351-.725,1.288,1.288,0,0,0-.529-.4,1.748,1.748,0,0,0-.65-.121,1.7,1.7,0,0,0-.644.121,1.256,1.256,0,0,0-.517.4,1.989,1.989,0,0,0-.339.725A4.366,4.366,0,0,0,2.909-12.6a4.057,4.057,0,0,0,.121,1.075,1.873,1.873,0,0,0,.339.7,1.245,1.245,0,0,0,.517.379,1.779,1.779,0,0,0,.644.115,1.825,1.825,0,0,0,.65-.115,1.279,1.279,0,0,0,.529-.379,1.882,1.882,0,0,0,.351-.7A3.882,3.882,0,0,0,6.187-12.6Zm7.728-3.577a1.508,1.508,0,0,1,.345-.311,1.029,1.029,0,0,1,.575-.138h2.059L4.543-.426a1.127,1.127,0,0,1-.351.3A1.021,1.021,0,0,1,3.68,0H1.564ZM17.767-3.91a4.387,4.387,0,0,1-.316,1.7,4.006,4.006,0,0,1-.845,1.294,3.744,3.744,0,0,1-1.231.828,3.75,3.75,0,0,1-1.46.293,3.926,3.926,0,0,1-1.53-.293,3.559,3.559,0,0,1-1.213-.828,3.783,3.783,0,0,1-.8-1.294,4.775,4.775,0,0,1-.288-1.7,5.036,5.036,0,0,1,.288-1.748,3.8,3.8,0,0,1,.8-1.322,3.52,3.52,0,0,1,1.213-.834,3.926,3.926,0,0,1,1.53-.293,3.969,3.969,0,0,1,1.535.293,3.566,3.566,0,0,1,1.225.834,3.759,3.759,0,0,1,.8,1.322A5.036,5.036,0,0,1,17.767-3.91Zm-2.185,0a4,4,0,0,0-.132-1.116,2.064,2.064,0,0,0-.357-.724,1.288,1.288,0,0,0-.529-.4,1.748,1.748,0,0,0-.65-.121,1.7,1.7,0,0,0-.644.121,1.216,1.216,0,0,0-.512.4,2.123,2.123,0,0,0-.339.724,4.177,4.177,0,0,0-.127,1.116,3.945,3.945,0,0,0,.127,1.081,2,2,0,0,0,.339.7,1.2,1.2,0,0,0,.512.38,1.779,1.779,0,0,0,.644.115,1.825,1.825,0,0,0,.65-.115,1.279,1.279,0,0,0,.529-.38,1.943,1.943,0,0,0,.357-.7A3.783,3.783,0,0,0,15.583-3.91Z" transform="translate(160 2357)" fill="#fff"/>
      <path id="Path_1815" data-name="Path 1815" d="M-3601.311,4636.452q0-7.028,0-14.055a2.325,2.325,0,0,1,2.574-2.591q2.916-.013,5.833,0a2.349,2.349,0,0,1,2.569,2.544q.008,14.121,0,28.242a2.358,2.358,0,0,1-2.554,2.571q-2.949.025-5.9,0a2.347,2.347,0,0,1-2.526-2.587Q-3601.314,4643.511-3601.311,4636.452Z" transform="translate(3787.306 -2269.189)" fill="#fff"/>
      <path id="Path_1816" data-name="Path 1816" d="M-3826.7,4761.613c0,1.768,0,3.534,0,5.3a2.3,2.3,0,0,1-2.389,2.443q-3.081.041-6.162,0a2.311,2.311,0,0,1-2.419-2.493q-.015-5.268,0-10.535a2.347,2.347,0,0,1,2.539-2.515q2.981-.018,5.963,0a2.312,2.312,0,0,1,2.466,2.438C-3826.693,4758.036-3826.7,4759.825-3826.7,4761.613Z" transform="translate(4008.373 -2385.388)" fill="#fff"/>
      <path id="Path_1817" data-name="Path 1817" d="M-3955.635,4780.9c0-1.324-.009-2.647,0-3.972a2.268,2.268,0,0,1,2.364-2.385q3.111-.021,6.222,0a2.29,2.29,0,0,1,2.383,2.38q.028,4,0,8.011a2.291,2.291,0,0,1-2.313,2.392q-3.177.068-6.355,0a2.265,2.265,0,0,1-2.3-2.449c0-.662,0-1.325,0-1.986s0-1.324,0-1.986Z" transform="translate(4110.658 -2403.366)" fill="#fff"/>
    </g>
  </g>
</svg>
